<svg width="141" height="138" viewBox="0 0 141 138" fill="none" xmlns="http://www.w3.org/2000/svg">
<path d="M141 69C141 107.106 109.432 138 70.5 138C31.5598 138 0 107.106 0 69C0 30.8943 31.5598 0 70.5 0C109.432 0 141 30.8943 141 69Z" fill="#F49B6C"/>
<path d="M5.28955 95.2417C15.8384 120.33 41.0552 138 70.5 138C99.9408 138 125.154 120.33 135.711 95.2417H5.28955Z" fill="#F8C3A7"/>
<path d="M118.396 95.4369H20.6163L30.9839 34.5L54.3959 40.6509L85.1299 46.7583L108.768 37.1535L118.396 95.4369Z" fill="#E08E64"/>
<path d="M106.93 106.97H31.2477L20.6163 95.2417H118.396L106.93 106.97Z" fill="#E6B49B"/>
<path d="M102.964 31.6079H36.0475C32.8408 31.6079 30.2444 34.0978 30.2444 37.1516V103.411C30.2444 106.475 32.8408 108.955 36.0475 108.955H102.964C106.171 108.955 108.767 106.473 108.767 103.411V37.1516C108.767 34.0978 106.171 31.6079 102.964 31.6079ZM54.0492 96.3536H42.1891V61.4376H54.0492V96.3536ZM48.1171 56.6648H48.0386C44.0584 56.6648 41.4861 53.9797 41.4861 50.6282C41.4861 47.2078 44.1409 44.5957 48.1957 44.5957C52.2545 44.5957 54.7522 47.2058 54.8308 50.6282C54.8308 53.9797 52.2525 56.6648 48.1171 56.6648ZM96.8125 96.3536H84.9504V77.6703C84.9504 72.9803 83.2382 69.7728 78.9458 69.7728C75.6706 69.7728 73.7167 71.9414 72.8586 74.0193C72.5484 74.7704 72.4699 75.7994 72.4699 76.8502V96.3536H60.6097C60.6097 96.3536 60.7669 64.7102 60.6097 61.4376H72.4699V66.378C74.047 63.9985 76.865 60.6155 83.1597 60.6155C90.961 60.6155 96.8145 65.6052 96.8145 76.3317V96.3536H96.8125Z" fill="#F1E6D4"/>
<path d="M72.4699 66.4942V66.3779C72.4458 66.4174 72.4196 66.4647 72.3914 66.4942H72.4699Z" fill="#F1E6D4"/>
</svg>
