<svg width="141" height="138" viewBox="0 0 141 138" fill="none" xmlns="http://www.w3.org/2000/svg">
<path fill-rule="evenodd" clip-rule="evenodd" d="M141 69C141 107.106 109.434 138 70.5 138C31.5598 138 0 107.106 0 69C0 30.8943 31.5598 0 70.5 0C109.434 0 141 30.8943 141 69Z" fill="#F49B6C"/>
<path fill-rule="evenodd" clip-rule="evenodd" d="M5.28955 95.2397C15.8384 120.33 41.0552 138 70.5 138C99.9408 138 125.156 120.33 135.711 95.2397H5.28955Z" fill="#F8C3A7"/>
<path fill-rule="evenodd" clip-rule="evenodd" d="M120.549 95.1589H20.4531L40.7632 43.3872L50.18 60.7042L79.4717 64.1148L108.193 47.545L120.549 95.1589Z" fill="#E08E64"/>
<path fill-rule="evenodd" clip-rule="evenodd" d="M109.559 109.349H33.4251L20.451 95.1589H120.547L109.559 109.349Z" fill="#E6B49B"/>
<path d="M108.193 47.5449C105.53 48.7041 102.662 49.4848 99.6527 49.8377C102.724 48.0358 105.083 45.1851 106.193 41.7864C103.319 43.4522 100.138 44.6646 96.7501 45.3192C94.0368 42.4882 90.1714 40.7238 85.8951 40.7238C77.6849 40.7238 71.0256 47.2393 71.0256 55.2768C71.0256 56.4163 71.1566 57.5282 71.4104 58.5908C59.0527 57.9856 48.095 52.1916 40.761 43.3872C39.4819 45.536 38.7467 48.0358 38.7467 50.7031C38.7467 55.7539 41.3713 60.2074 45.3616 62.8195C42.9264 62.7407 40.6321 62.0862 38.6279 60.996C38.6279 61.059 38.6279 61.1182 38.6279 61.1813C38.6279 68.2311 43.7522 74.1138 50.5565 75.4505C49.3076 75.7836 47.9963 75.9591 46.6387 75.9591C45.6799 75.9591 44.7493 75.8704 43.8388 75.6989C45.7323 81.4811 51.2232 85.6881 57.7293 85.8064C52.6413 89.7078 46.2318 92.0361 39.2624 92.0361C38.0619 92.0361 36.8795 91.9671 35.7152 91.833C42.2979 95.9632 50.1113 98.3703 58.5089 98.3703C85.8588 98.3703 100.815 76.1957 100.815 56.9624C100.815 56.3335 100.803 55.7027 100.773 55.0797C103.681 53.0294 106.205 50.4646 108.193 47.5449Z" fill="#F9F0DF"/>
<path d="M45.3638 62.8176C42.9286 62.7387 40.6343 62.0842 38.6301 60.994C38.6301 61.0571 38.6301 61.1163 38.6301 61.1793C38.6301 68.2292 43.7544 74.1119 50.5587 75.4485C49.3098 75.7817 47.9985 75.9572 46.6409 75.9572C45.6821 75.9572 44.7515 75.8684 43.841 75.6969C45.7344 81.4791 51.2254 85.6862 57.7315 85.8044C52.6435 89.7059 46.234 92.0342 39.2646 92.0342C38.064 92.0342 36.8817 91.9652 35.7174 91.8311C42.3001 95.9612 50.1135 98.3684 58.5111 98.3684C75.8662 98.3684 88.2298 89.4398 94.9475 77.9996C83.6413 74.2065 69.4204 69.5461 45.3638 62.8176Z" fill="#F1E6D4"/>
</svg>
